<?xml version="1.0" encoding="utf-8"?>
<!-- Generator: Adobe Illustrator 19.2.1, SVG Export Plug-In . SVG Version: 6.00 Build 0)  -->
<svg version="1.1" id="Layer_1" xmlns="http://www.w3.org/2000/svg" xmlns:xlink="http://www.w3.org/1999/xlink" x="0px" y="0px"
	 viewBox="0 0 100 41.9" style="enable-background:new 0 0 100 41.9;" xml:space="preserve">
<style type="text/css">
	.st0{fill:#FFFFFF;}
</style>
<path class="st0" d="M98.5,0.8v1.1c-1,0-1.9,0.2-2.5,0.6s-1.3,1.1-1.8,2.1c-0.4,0.7-1,2.3-1.8,4.9l-11,31.8h-1.2l-9-25.2l-8.9,25.2
	h-1L49.5,8.4c-0.9-2.4-1.4-3.9-1.7-4.3c-0.4-0.7-0.9-1.3-1.6-1.6C45.5,2.1,44.6,2,43.5,2V0.8h14.6v1.1h-0.7c-1,0-1.8,0.2-2.4,0.7
	s-0.8,1-0.8,1.7s0.4,2.2,1.3,4.7l7.9,22l6.5-18.8l-1.2-3.3l-0.9-2.7c-0.4-1-0.9-1.8-1.4-2.6c-0.3-0.4-0.6-0.7-0.9-0.9
	c-0.5-0.3-1-0.6-1.4-0.8c-0.4-0.1-1-0.2-1.7-0.2v-1h15.3v1.1h-1c-1.1,0-1.9,0.2-2.4,0.7s-0.8,1.1-0.8,1.9c0,1,0.4,2.7,1.3,5.2
	L82.4,31l7.5-21.7c0.8-2.4,1.3-4.1,1.3-5c0-0.4-0.1-0.9-0.4-1.3s-0.6-0.7-1.1-0.8C89,1.9,88,1.8,86.8,1.8v-1
	C86.8,0.8,98.5,0.8,98.5,0.8z M23.6,40.2c-7.7,0-13.4-2.1-17.1-6.2c-3.4-3.7-5-8.3-5-13.8c0-4.1,0.9-7.7,2.8-10.8S8.7,4,11.7,2.7
	c3.1-1.3,7.6-2,13.4-2h16v1.1h-1.5c-1.5,0-2.6,0.4-3.4,1.3c-0.6,0.6-0.8,2.2-0.8,4.6v25.4c0,2.2,0.2,3.7,0.6,4.3
	c0.7,1.1,1.9,1.6,3.5,1.6H41v1.1C41,40.1,23.6,40.2,23.6,40.2z M29.9,3.9C27.7,3.3,25.7,3,24,3c-4.6,0-8.4,1.6-11.4,4.7
	s-4.5,7.4-4.5,12.9c0,5.4,1.5,9.7,4.5,12.8s6.7,4.7,11.2,4.7c1.7,0,3.7-0.3,6.2-0.8L29.9,3.9L29.9,3.9z"/>
</svg>
