<svg xmlns="http://www.w3.org/2000/svg" style="font-family:&quot;Lucida Grande&quot;, &quot;Lucida Sans Unicode&quot;, Arial, Helvetica, sans-serif;font-size:12px;" width="280" height="190" version="1.1"><desc>Created with Highcharts 4.0.4 /Highstock 2.0.4</desc><defs><clipPath id="highcharts-1"><rect x="0" y="0" width="260" height="120" /></clipPath></defs><rect class=" highcharts-background" fill="#f5f5f5" x="0" y="0" width="280" height="190" strokeWidth="0" /><path fill="rgba(178, 191, 205, 0.25)" d="M 0 0" /><path fill="rgba(119, 161, 229, 0.25)" d="M 0 0" /><g class="highcharts-grid" zIndex="1" /><g class="highcharts-grid" zIndex="1"><path opacity="1" fill="none" stroke="#c0c0c0" stroke-dasharray="4px, 3px" stroke-width="1" d="M 10 9.5 L 270 9.5" zIndex="1" /><path opacity="1" fill="none" stroke="#c0c0c0" stroke-dasharray="4px, 3px" stroke-width="1" d="M 10 50.5 L 270 50.5" zIndex="1" /><path opacity="1" fill="none" stroke="#c0c0c0" stroke-dasharray="4px, 3px" stroke-width="1" d="M 10 90.5 L 270 90.5" zIndex="1" /><path opacity="1" fill="none" stroke="#c0c0c0" stroke-dasharray="4px, 3px" stroke-width="1" d="M 10 130.5 L 270 130.5" zIndex="1" /></g><g class="highcharts-axis" zIndex="2"><path opacity="1" fill="none" stroke="#c0d0e0" stroke-width="1" d="M 52.5 130 L 52.5 134" /><path opacity="1" fill="none" stroke="#c0d0e0" stroke-width="1" d="M 74.5 130 L 74.5 134" /><path opacity="1" fill="none" stroke="#c0d0e0" stroke-width="1" d="M 96.5 130 L 96.5 134" /><path opacity="1" fill="none" stroke="#c0d0e0" stroke-width="1" d="M 117.5 130 L 117.5 134" /><path opacity="1" fill="none" stroke="#c0d0e0" stroke-width="1" d="M 139.5 130 L 139.5 134" /><path opacity="1" fill="none" stroke="#c0d0e0" stroke-width="1" d="M 161.5 130 L 161.5 134" /><path opacity="1" fill="none" stroke="#c0d0e0" stroke-width="1" d="M 182.5 130 L 182.5 134" /><path opacity="1" fill="none" stroke="#c0d0e0" stroke-width="1" d="M 204.5 130 L 204.5 134" /><path opacity="1" fill="none" stroke="#c0d0e0" stroke-width="1" d="M 226.5 130 L 226.5 134" /><path opacity="1" fill="none" stroke="#c0d0e0" stroke-width="1" d="M 247.5 130 L 247.5 134" /><path opacity="1" fill="none" stroke="#c0d0e0" stroke-width="1" d="M 270.5 130 L 270.5 134" /><path opacity="1" fill="none" stroke="#c0d0e0" stroke-width="1" d="M 31.5 130 L 31.5 134" /><path opacity="1" fill="none" stroke="#c0d0e0" stroke-width="1" d="M 9.5 130 L 9.5 134" /><path visibility="visible" fill="none" stroke="#c0d0e0" stroke-width="1" d="M 10 130.5 L 270 130.5" zIndex="7" /></g><g class="highcharts-axis" zIndex="2" /><g class="highcharts-series-group" zIndex="3"><g class="highcharts-series" visibility="visible" clip-path="url(&quot;#highcharts-1&quot;)" transform="translate(10 10) scale(1)" zIndex="0.1"><path fill="rgba(178, 191, 205, 0.5)" d="M 10.8333 79.2 C 10.8333 79.2 23.8333 87.144 32.5 87.144 C 41.1667 87.144 45.5 64.864 54.1667 59.036 C 62.8333 53.208 67.1667 53.208 75.8333 53.208 C 84.5 53.208 88.8333 56.676 97.5 56.676 C 106.167 56.676 110.5 48.4 119.167 48.4 C 127.833 48.4 132.167 54.168 140.833 54.168 C 149.5 54.168 153.833 51.8024 162.5 48.316 C 171.167 44.8296 175.5 36.736 184.167 36.736 C 192.833 36.736 197.167 65.784 205.833 65.784 C 214.5 65.784 218.833 54.1632 227.5 50.14 C 236.167 46.1168 249.167 45.668 249.167 45.668 L 249.167 120 L 10.8333 120" zIndex="0" /><path fill="none" stroke="#b2bfcd" stroke-linecap="round" stroke-linejoin="round" stroke-width="1" d="M 10.8333 79.2 C 10.8333 79.2 23.8333 87.144 32.5 87.144 C 41.1667 87.144 45.5 64.864 54.1667 59.036 C 62.8333 53.208 67.1667 53.208 75.8333 53.208 C 84.5 53.208 88.8333 56.676 97.5 56.676 C 106.167 56.676 110.5 48.4 119.167 48.4 C 127.833 48.4 132.167 54.168 140.833 54.168 C 149.5 54.168 153.833 51.8024 162.5 48.316 C 171.167 44.8296 175.5 36.736 184.167 36.736 C 192.833 36.736 197.167 65.784 205.833 65.784 C 214.5 65.784 218.833 54.1632 227.5 50.14 C 236.167 46.1168 249.167 45.668 249.167 45.668" zIndex="1" /><path class=" highcharts-tracker" visibility="visible" style="" fill="none" stroke="rgba(192, 192, 192, 0.0001)" stroke-linejoin="round" stroke-width="21" d="M 0.833333 79.2 L 10.8333 79.2 C 10.8333 79.2 23.8333 87.144 32.5 87.144 C 41.1667 87.144 45.5 64.864 54.1667 59.036 C 62.8333 53.208 67.1667 53.208 75.8333 53.208 C 84.5 53.208 88.8333 56.676 97.5 56.676 C 106.167 56.676 110.5 48.4 119.167 48.4 C 127.833 48.4 132.167 54.168 140.833 54.168 C 149.5 54.168 153.833 51.8024 162.5 48.316 C 171.167 44.8296 175.5 36.736 184.167 36.736 C 192.833 36.736 197.167 65.784 205.833 65.784 C 214.5 65.784 218.833 54.1632 227.5 50.14 C 236.167 46.1168 249.167 45.668 249.167 45.668 L 259.167 45.668" zIndex="2" /></g><g class="highcharts-markers highcharts-tracker" visibility="visible" style="" clip-path="none" transform="translate(10 10) scale(1)" zIndex="0.1"><path visibility="hidden" fill="#b2bfcd" stroke="#ffffff" stroke-width="1" d="M 10.8333 75.2 C 16.1613 75.2 16.1613 83.2 10.8333 83.2 C 5.50533 83.2 5.50533 75.2 10.8333 75.2 Z" /></g><g class="highcharts-series" visibility="visible" clip-path="url(&quot;#highcharts-1&quot;)" transform="translate(10 10) scale(1)" zIndex="0.1"><path fill="rgba(119, 161, 229, 0.5)" d="M 10.8333 74.836 C 10.8333 74.836 23.8333 91.932 32.5 91.932 C 41.1667 91.932 45.5 66.092 54.1667 66.092 C 62.8333 66.092 67.1667 68.56 75.8333 69.068 C 84.5 69.576 88.8333 69.068 97.5 69.576 C 106.167 70.084 110.5 72.312 119.167 73.24 C 127.833 74.168 132.167 74.216 140.833 74.216 C 149.5 74.216 153.833 71.8136 162.5 70.956 C 171.167 70.0984 175.5 69.928 184.167 69.928 C 192.833 69.928 197.167 80.284 205.833 80.284 C 214.5 80.284 218.833 80.2216 227.5 78.844 C 236.167 77.4664 249.167 73.396 249.167 73.396 L 249.167 120 L 10.8333 120" zIndex="0" /><path fill="none" stroke="#77a1e5" stroke-linecap="round" stroke-linejoin="round" stroke-width="1" d="M 10.8333 74.836 C 10.8333 74.836 23.8333 91.932 32.5 91.932 C 41.1667 91.932 45.5 66.092 54.1667 66.092 C 62.8333 66.092 67.1667 68.56 75.8333 69.068 C 84.5 69.576 88.8333 69.068 97.5 69.576 C 106.167 70.084 110.5 72.312 119.167 73.24 C 127.833 74.168 132.167 74.216 140.833 74.216 C 149.5 74.216 153.833 71.8136 162.5 70.956 C 171.167 70.0984 175.5 69.928 184.167 69.928 C 192.833 69.928 197.167 80.284 205.833 80.284 C 214.5 80.284 218.833 80.2216 227.5 78.844 C 236.167 77.4664 249.167 73.396 249.167 73.396" zIndex="1" /><path class=" highcharts-tracker" visibility="visible" style="" fill="none" stroke="rgba(192, 192, 192, 0.0001)" stroke-linejoin="round" stroke-width="21" d="M 0.833333 74.836 L 10.8333 74.836 C 10.8333 74.836 23.8333 91.932 32.5 91.932 C 41.1667 91.932 45.5 66.092 54.1667 66.092 C 62.8333 66.092 67.1667 68.56 75.8333 69.068 C 84.5 69.576 88.8333 69.068 97.5 69.576 C 106.167 70.084 110.5 72.312 119.167 73.24 C 127.833 74.168 132.167 74.216 140.833 74.216 C 149.5 74.216 153.833 71.8136 162.5 70.956 C 171.167 70.0984 175.5 69.928 184.167 69.928 C 192.833 69.928 197.167 80.284 205.833 80.284 C 214.5 80.284 218.833 80.2216 227.5 78.844 C 236.167 77.4664 249.167 73.396 249.167 73.396 L 259.167 73.396" zIndex="2" /></g><g class="highcharts-markers highcharts-tracker" visibility="visible" style="" clip-path="none" transform="translate(10 10) scale(1)" zIndex="0.1"><path visibility="hidden" fill="#77a1e5" stroke="#ffffff" stroke-width="1" d="M 10.8333 70.836 C 16.1613 70.836 16.1613 78.836 10.8333 78.836 C 5.50533 78.836 5.50533 70.836 10.8333 70.836 Z" /></g></g><g class="highcharts-legend" transform="translate(166 156)" zIndex="7"><g zIndex="1"><g><g class="highcharts-legend-item" transform="translate(8 3)" zIndex="1"><text style="color:#999;font-size:12px;font-weight:bold;cursor:pointer;fill:#999;" text-anchor="start" x="14" y="15" zIndex="2">去年</text><rect fill="#b2bfcd" x="0" y="5.5" width="9" height="9" zIndex="3" /></g><g class="highcharts-legend-item" transform="translate(66 3)" zIndex="1"><text style="color:#999;font-size:12px;font-weight:bold;cursor:pointer;fill:#999;" text-anchor="start" x="14" y="15" zIndex="2">今年</text><rect fill="#77a1e5" x="0" y="5.5" width="9" height="9" zIndex="3" /></g></g></g></g><g class="highcharts-axis-labels highcharts-xaxis-labels" zIndex="7"><text style="width:2px;color:#606060;cursor:default;font-size:12px;fill:#606060;" opacity="1" text-anchor="middle" x="20.8333" y="151">1</text><text style="width:2px;color:#606060;cursor:default;font-size:12px;fill:#606060;" opacity="1" text-anchor="middle" x="42.5" y="151">2</text><text style="width:2px;color:#606060;cursor:default;font-size:12px;fill:#606060;" opacity="1" text-anchor="middle" x="64.1667" y="151">3</text><text style="width:2px;color:#606060;cursor:default;font-size:12px;fill:#606060;" opacity="1" text-anchor="middle" x="85.8333" y="151">4</text><text style="width:2px;color:#606060;cursor:default;font-size:12px;fill:#606060;" opacity="1" text-anchor="middle" x="107.5" y="151">5</text><text style="width:2px;color:#606060;cursor:default;font-size:12px;fill:#606060;" opacity="1" text-anchor="middle" x="129.1667" y="151">6</text><text style="width:2px;color:#606060;cursor:default;font-size:12px;fill:#606060;" opacity="1" text-anchor="middle" x="150.8333" y="151">7</text><text style="width:2px;color:#606060;cursor:default;font-size:12px;fill:#606060;" opacity="1" text-anchor="middle" x="172.5" y="151">8</text><text style="width:2px;color:#606060;cursor:default;font-size:12px;fill:#606060;" opacity="1" text-anchor="middle" x="194.1667" y="151">9</text><text style="width:2px;color:#606060;cursor:default;font-size:12px;fill:#606060;" opacity="1" text-anchor="middle" x="215.8333" y="151">10</text><text style="width:2px;color:#606060;cursor:default;font-size:12px;fill:#606060;" opacity="1" text-anchor="middle" x="237.5" y="151">11</text><text style="width:2px;color:#606060;cursor:default;font-size:12px;fill:#606060;" opacity="1" text-anchor="middle" x="259.1667" y="151">12</text></g><g class="highcharts-axis-labels highcharts-yaxis-labels" zIndex="7"><text style="width:72px;color:#606060;cursor:default;font-size:11px;fill:#606060;" opacity="1" text-anchor="end" x="-5" y="142"></text><text style="width:72px;color:#606060;cursor:default;font-size:11px;fill:#606060;" opacity="1" text-anchor="end" x="-5" y="102"></text><text style="width:72px;color:#606060;cursor:default;font-size:11px;fill:#606060;" opacity="1" text-anchor="end" x="-5" y="62"></text><text style="width:72px;color:#606060;cursor:default;font-size:11px;fill:#606060;" opacity="1" text-anchor="end" x="-5" y="22"></text></g><g class="highcharts-tooltip" visibility="visible" style="cursor:default;padding:0;white-space:nowrap;" opacity="1" transform="translate(63 58)" zIndex="8"><path fill="none" stroke="black" stroke-opacity="0.05" stroke-width="5" transform="translate(1 1)" d="M 3.5 0.5 L 101.5 0.5 C 104.5 0.5 104.5 0.5 104.5 3.5 L 104.5 63.5 C 104.5 66.5 104.5 66.5 101.5 66.5 L 3.5 66.5 C 0.5 66.5 0.5 66.5 0.5 63.5 L 0.5 3.5 C 0.5 0.5 0.5 0.5 3.5 0.5" isShadow="true" width="104" height="66" /><path fill="none" stroke="black" stroke-opacity="0.1" stroke-width="3" transform="translate(1 1)" d="M 3.5 0.5 L 101.5 0.5 C 104.5 0.5 104.5 0.5 104.5 3.5 L 104.5 63.5 C 104.5 66.5 104.5 66.5 101.5 66.5 L 3.5 66.5 C 0.5 66.5 0.5 66.5 0.5 63.5 L 0.5 3.5 C 0.5 0.5 0.5 0.5 3.5 0.5" isShadow="true" width="104" height="66" /><path fill="none" stroke="black" stroke-opacity="0.15" stroke-width="1" transform="translate(1 1)" d="M 3.5 0.5 L 101.5 0.5 C 104.5 0.5 104.5 0.5 104.5 3.5 L 104.5 63.5 C 104.5 66.5 104.5 66.5 101.5 66.5 L 3.5 66.5 C 0.5 66.5 0.5 66.5 0.5 63.5 L 0.5 3.5 C 0.5 0.5 0.5 0.5 3.5 0.5" isShadow="true" width="104" height="66" /><path fill="rgba(249, 249, 249, 0.85)" stroke="#b2bfcd" stroke-width="1" d="M 3.5 0.5 L 101.5 0.5 C 104.5 0.5 104.5 0.5 104.5 3.5 L 104.5 63.5 C 104.5 66.5 104.5 66.5 101.5 66.5 L 3.5 66.5 C 0.5 66.5 0.5 66.5 0.5 63.5 L 0.5 3.5 C 0.5 0.5 0.5 0.5 3.5 0.5" /><text style="font-size:12px;color:#333333;fill:#333333;" x="8" y="21" zIndex="1"><tspan style="font-weight:bold">1月</tspan><tspan style="fill:#b2bfcd" x="8" dy="16">●</tspan><tspan dx="0"> 去年: </tspan><tspan style="font-weight:bold" dx="0">10,200</tspan><tspan style="fill:#77a1e5" x="8" dy="16">●</tspan><tspan dx="0"> 今年: </tspan><tspan style="font-weight:bold" dx="0">11,291</tspan></text></g><text style="cursor:pointer;color:#909090;font-size:9px;fill:#909090;" text-anchor="end" x="270" y="185" zIndex="8" /></svg>