<svg xmlns="http://www.w3.org/2000/svg" class="octicon octicon-repo" aria-hidden="true" viewBox="0 0 12 16" width="12" height="16" version="1.1"><path fill-rule="evenodd" d="M 4 9 H 3 V 8 h 1 v 1 Z m 0 -3 H 3 v 1 h 1 V 6 Z m 0 -2 H 3 v 1 h 1 V 4 Z m 0 -2 H 3 v 1 h 1 V 2 Z m 8 -1 v 12 c 0 0.55 -0.45 1 -1 1 H 6 v 2 l -1.5 -1.5 L 3 16 v -2 H 1 c -0.55 0 -1 -0.45 -1 -1 V 1 c 0 -0.55 0.45 -1 1 -1 h 10 c 0.55 0 1 0.45 1 1 Z m -1 10 H 1 v 2 h 2 v -1 h 3 v 1 h 5 v -2 Z m 0 -10 H 2 v 9 h 9 V 1 Z" /></svg>