<svg xmlns="http://www.w3.org/2000/svg" class="octicon octicon-repo-forked v-align-text-bottom" aria-hidden="true" viewBox="0 0 10 16" width="10" height="16" version="1.1"><path fill-rule="evenodd" d="M 8 1 a 1.993 1.993 0 0 0 -1 3.72 V 6 L 5 8 L 3 6 V 4.72 A 1.993 1.993 0 0 0 2 1 a 1.993 1.993 0 0 0 -1 3.72 V 6.5 l 3 3 v 1.78 A 1.993 1.993 0 0 0 5 15 a 1.993 1.993 0 0 0 1 -3.72 V 9.5 l 3 -3 V 4.72 A 1.993 1.993 0 0 0 8 1 Z M 2 4.2 C 1.34 4.2 0.8 3.65 0.8 3 c 0 -0.65 0.55 -1.2 1.2 -1.2 c 0.65 0 1.2 0.55 1.2 1.2 c 0 0.65 -0.55 1.2 -1.2 1.2 Z m 3 10 c -0.66 0 -1.2 -0.55 -1.2 -1.2 c 0 -0.65 0.55 -1.2 1.2 -1.2 c 0.65 0 1.2 0.55 1.2 1.2 c 0 0.65 -0.55 1.2 -1.2 1.2 Z m 3 -10 c -0.66 0 -1.2 -0.55 -1.2 -1.2 c 0 -0.65 0.55 -1.2 1.2 -1.2 c 0.65 0 1.2 0.55 1.2 1.2 c 0 0.65 -0.55 1.2 -1.2 1.2 Z" /></svg>